<?xml version="1.0" standalone="no"?>
<!DOCTYPE svg PUBLIC "-//W3C//DTD SVG 20010904//EN"
 "http://www.w3.org/TR/2001/REC-SVG-20010904/DTD/svg10.dtd">
<svg version="1.0" xmlns="http://www.w3.org/2000/svg"
 width="512.000000pt" height="512.000000pt" viewBox="0 0 512.000000 512.000000"
 preserveAspectRatio="xMidYMid meet">

<g transform="translate(0.000000,512.000000) scale(0.100000,-0.100000)"
fill="#000000" stroke="none">
<path d="M923 4148 c-30 -15 -46 -58 -34 -91 13 -35 40 -47 100 -47 l51 0 0
-89 c0 -88 0 -89 -26 -95 -42 -11 -96 -52 -125 -95 -15 -23 -37 -81 -49 -131
-22 -87 -24 -91 -59 -106 -46 -19 -87 -58 -114 -109 -17 -33 -22 -62 -25 -162
l-4 -123 -42 -10 c-112 -29 -145 -42 -178 -67 -40 -32 -74 -79 -84 -117 -6
-25 -8 -26 -95 -26 l-89 0 0 53 c0 28 -6 60 -14 69 -30 39 -92 40 -122 0 -19
-25 -19 -859 0 -884 30 -39 92 -40 122 0 7 9 14 41 14 70 l0 52 89 0 c87 0 89
-1 95 -26 10 -38 44 -85 84 -117 33 -25 66 -38 178 -67 l42 -10 4 -123 c3
-100 8 -129 25 -162 27 -51 68 -90 114 -109 35 -15 37 -19 59 -106 12 -50 34
-108 49 -131 29 -43 83 -84 125 -95 26 -6 26 -7 26 -95 l0 -89 -51 0 c-60 0
-87 -12 -100 -47 -13 -36 5 -78 40 -92 19 -8 153 -11 443 -9 393 3 417 4 437
22 29 26 28 76 -2 104 -18 17 -36 22 -80 22 l-57 0 0 85 0 86 43 18 c54 23
103 65 124 105 9 17 27 67 38 111 l22 80 64 0 63 0 9 -40 c33 -150 76 -218
163 -251 l44 -17 0 -88 0 -89 -55 0 c-42 0 -60 -5 -75 -20 -33 -33 -30 -75 6
-107 l25 -23 419 0 419 0 25 23 c36 32 39 74 6 107 -15 15 -33 20 -75 20 l-55
0 0 89 0 88 44 17 c25 10 62 36 85 61 38 42 48 64 81 193 l11 43 61 -3 61 -3
22 -80 c11 -44 29 -94 38 -111 21 -40 70 -82 124 -105 l43 -18 0 -86 0 -85
-58 0 c-48 0 -62 -4 -80 -23 -28 -30 -29 -78 -1 -103 20 -18 44 -19 437 -22
290 -2 424 1 443 9 35 14 53 56 40 92 -13 35 -40 47 -100 47 l-51 0 0 89 c0
88 0 89 26 95 42 11 96 52 125 95 15 23 37 81 49 131 22 87 24 91 59 106 46
19 87 58 114 109 17 33 22 62 25 162 l4 123 42 10 c112 29 145 42 178 67 40
32 74 79 84 117 6 25 8 26 95 26 l89 0 0 -52 c0 -29 6 -61 14 -70 30 -39 92
-40 122 0 19 25 19 859 0 884 -30 39 -92 40 -122 0 -7 -9 -14 -41 -14 -69 l0
-53 -89 0 c-87 0 -89 1 -95 26 -10 38 -44 85 -84 117 -33 25 -66 38 -178 67
l-42 10 -4 123 c-3 100 -8 129 -25 162 -27 51 -68 90 -114 109 -35 15 -37 19
-59 106 -12 50 -34 108 -49 131 -29 43 -83 84 -125 95 -26 6 -26 7 -26 95 l0
89 51 0 c60 0 87 12 100 47 13 36 -5 78 -40 92 -19 8 -153 11 -443 9 -393 -3
-417 -4 -437 -22 -29 -26 -28 -76 2 -104 18 -17 36 -22 80 -22 l57 0 0 -85 0
-86 -43 -18 c-54 -23 -103 -65 -124 -105 -9 -17 -27 -67 -38 -111 l-22 -80
-64 0 -63 0 -9 40 c-33 150 -76 218 -163 251 l-44 17 0 88 0 89 55 0 c42 0 60
5 75 20 33 33 30 75 -6 108 l-25 22 -419 0 -419 0 -25 -22 c-36 -33 -39 -75
-6 -108 15 -15 33 -20 75 -20 l55 0 0 -89 0 -88 -44 -17 c-25 -10 -62 -36 -85
-61 -38 -42 -48 -64 -81 -193 l-11 -43 -61 3 -61 3 -22 80 c-11 44 -29 94 -38
111 -21 40 -70 82 -124 105 l-43 18 0 86 0 85 58 0 c48 0 62 4 80 23 28 30 29
78 1 103 -20 18 -44 19 -443 21 -283 1 -428 -2 -443 -9z m597 -223 l0 -85
-165 0 -165 0 0 85 0 85 165 0 165 0 0 -85z m1208 -2 l3 -83 -171 0 -170 0 0
78 c0 43 3 82 7 86 4 3 79 5 167 4 l161 -3 3 -82z m1202 2 l0 -85 -165 0 -165
0 0 85 0 85 165 0 165 0 0 -85z m-2242 -258 c16 -14 52 -112 52 -140 0 -4
-173 -7 -384 -7 l-384 0 15 58 c15 60 35 89 68 103 11 4 153 7 316 6 270 -2
299 -4 317 -20z m1182 10 c28 -14 55 -63 65 -119 l7 -38 -382 0 -382 0 7 38
c10 56 37 105 65 119 18 9 103 13 310 13 207 0 292 -4 310 -13z m1223 -15 c15
-14 31 -47 40 -83 l15 -59 -35 0 c-88 0 -134 -71 -81 -127 19 -21 30 -23 113
-23 51 0 106 -5 124 -11 63 -22 61 6 61 -799 0 -805 2 -777 -61 -799 -23 -8
-447 -11 -1484 -11 -1397 0 -1454 -1 -1476 -18 -30 -25 -30 -75 0 -105 21 -21
31 -22 226 -25 113 -2 205 -6 205 -9 0 -4 -7 -33 -16 -64 -28 -98 -10 -94
-364 -94 l-308 0 -25 23 c-15 14 -31 47 -40 83 l-15 59 35 0 c88 0 134 71 81
127 -19 21 -30 23 -115 23 -108 0 -158 16 -173 55 -14 36 -14 1474 0 1510 22
58 -51 55 1534 55 1398 0 1455 1 1477 18 30 25 30 75 0 105 -21 21 -31 22
-226 25 -113 2 -205 7 -205 11 0 18 33 117 43 130 23 27 58 30 349 28 295 -2
297 -2 321 -25z m-3453 -1102 c0 -308 -3 -380 -13 -380 -38 0 -118 33 -136 57
-20 25 -21 38 -21 323 0 340 -1 337 88 364 90 28 82 65 82 -364z m3918 365
c94 -28 92 -22 92 -365 0 -285 -1 -298 -21 -323 -18 -24 -98 -57 -136 -57 -10
0 -13 72 -13 380 0 308 3 380 13 380 7 0 36 -7 65 -15z m-4238 -365 l0 -170
-85 0 -85 0 0 170 0 170 85 0 85 0 0 -170z m4650 0 l0 -170 -85 0 -85 0 0 170
0 170 85 0 85 0 0 -170z m-2035 -997 c-10 -57 -37 -106 -65 -120 -18 -9 -103
-13 -310 -13 -207 0 -292 4 -310 13 -28 14 -55 63 -65 120 l-7 37 382 0 382 0
-7 -37z m1198 -22 c-9 -36 -25 -69 -40 -83 l-25 -23 -308 0 c-354 0 -336 -4
-364 94 -9 31 -16 60 -16 64 0 4 173 7 384 7 l384 0 -15 -59z m-2613 -346 l0
-85 -165 0 -165 0 0 85 0 85 165 0 165 0 0 -85z m1208 3 l-3 -83 -165 0 -165
0 -3 83 -3 82 171 0 171 0 -3 -82z m1202 -3 l0 -85 -165 0 -165 0 0 85 0 85
165 0 165 0 0 -85z"/>
<path d="M1551 3189 c-212 -39 -253 -336 -60 -433 159 -79 339 29 339 204 0
149 -131 256 -279 229z m107 -172 c28 -26 29 -75 1 -111 -16 -20 -29 -26 -57
-26 -20 0 -45 6 -54 14 -48 36 -39 118 15 141 36 15 64 9 95 -18z"/>
<path d="M3480 3190 c-185 -34 -255 -268 -119 -397 130 -124 351 -57 388 118
35 161 -108 309 -269 279z m116 -196 c25 -60 -11 -113 -78 -114 -45 0 -78 36
-78 85 0 84 123 108 156 29z"/>
<path d="M2186 3030 c-65 -11 -86 -34 -95 -103 -17 -126 24 -251 110 -336 l49
-48 -19 -24 c-52 -68 -66 -110 -66 -211 0 -88 2 -100 23 -120 20 -21 32 -23
120 -23 100 0 143 14 210 66 24 18 24 18 72 -29 90 -89 218 -131 337 -112 73
12 92 32 102 103 17 126 -24 251 -110 336 l-49 48 19 24 c52 68 66 110 66 211
0 128 -11 141 -120 146 -88 5 -159 -14 -220 -60 l-40 -29 -30 34 c-86 99 -228
149 -359 127z m169 -170 c76 -33 130 -110 137 -195 l3 -40 -40 3 c-117 10
-214 110 -215 220 l0 43 38 -7 c20 -3 55 -14 77 -24z m455 -70 c0 -66 -79
-153 -133 -148 -28 3 -32 7 -35 34 -5 53 79 134 141 134 20 0 27 -5 27 -20z
m-53 -323 c70 -37 123 -122 123 -197 l0 -41 -37 7 c-85 15 -156 62 -190 127
-14 28 -34 123 -26 130 7 8 102 -12 130 -26z m-279 -24 c5 -53 -80 -133 -143
-133 -18 0 -25 5 -25 20 0 66 79 153 133 148 28 -3 32 -7 35 -35z"/>
<path d="M1089 2687 c-58 -31 -104 -93 -119 -160 -32 -141 78 -278 223 -278
134 0 237 100 237 231 0 94 -57 179 -142 214 -57 24 -146 21 -199 -7z m170
-153 c27 -35 27 -77 -1 -108 -61 -67 -166 -7 -138 80 14 41 33 53 82 54 28 0
41 -6 57 -26z"/>
<path d="M3825 2691 c-148 -69 -182 -266 -64 -378 97 -92 256 -85 339 15 127
153 22 382 -174 382 -38 0 -76 -7 -101 -19z m145 -141 c10 -5 24 -25 30 -44
28 -87 -77 -147 -137 -80 -47 51 -13 134 53 134 20 0 44 -4 54 -10z"/>
<path d="M1653 2365 c-217 -109 -138 -437 105 -437 132 0 232 99 232 232 0
174 -180 283 -337 205z m164 -147 c31 -29 31 -87 1 -115 -45 -42 -112 -31
-134 22 -15 38 -11 59 19 93 27 29 82 30 114 0z"/>
<path d="M3265 2371 c-84 -39 -135 -120 -135 -213 1 -131 101 -230 232 -230
243 0 322 328 105 437 -63 31 -143 33 -202 6z m152 -153 c30 -34 34 -55 19
-93 -34 -80 -156 -53 -156 34 0 73 89 111 137 59z"/>
</g>
</svg>
