<?xml version="1.0" standalone="no"?>
<!DOCTYPE svg PUBLIC "-//W3C//DTD SVG 20010904//EN"
 "http://www.w3.org/TR/2001/REC-SVG-20010904/DTD/svg10.dtd">
<svg version="1.0" xmlns="http://www.w3.org/2000/svg"
 width="225.000000pt" height="225.000000pt" viewBox="0 0 225.000000 225.000000"
 preserveAspectRatio="xMidYMid meet">
<metadata>
Created by potrace 1.16, written by Peter Selinger 2001-2019
</metadata>
<g transform="translate(0.000000,225.000000) scale(0.100000,-0.100000)"
fill="#000000" stroke="none">
<path d="M265 1678 c13 -5 1 -6 -35 -3 -33 3 -50 2 -42 -3 8 -6 -9 -9 -47 -8
-33 0 -63 -3 -67 -7 -4 -3 -1 -26 6 -49 20 -68 57 -293 69 -412 18 -178 14
-296 -15 -513 -6 -49 -5 -53 15 -53 13 0 22 8 26 23 12 53 25 160 31 260 l7
108 51 -6 c28 -3 62 -8 76 -11 l25 -5 -6 -99 c-4 -55 -10 -122 -14 -150 -6
-46 -5 -50 13 -50 13 0 22 9 26 25 7 27 25 202 26 243 0 20 4 23 33 20 l32 -3
6 -160 c4 -88 7 -179 8 -202 1 -36 4 -43 21 -43 19 0 20 7 20 205 l0 204 73
21 c39 12 79 23 88 26 15 4 18 -15 24 -173 7 -178 14 -216 38 -208 9 4 11 58
8 230 -3 206 -2 225 14 225 9 0 15 6 13 13 -9 24 -84 39 -229 44 l-146 6 -12
116 c-6 64 -20 177 -31 251 -11 74 -20 137 -20 140 0 3 -24 5 -53 6 -37 1 -46
-1 -32 -8z"/>
<path d="M1965 1671 c-9 -29 -62 -357 -70 -433 l-7 -68 -168 0 c-95 0 -180 -5
-199 -11 -33 -12 -41 -33 -16 -42 14 -6 15 -36 0 -349 -4 -90 -3 -98 14 -98
22 0 27 32 37 238 4 72 10 132 13 132 3 0 29 -9 56 -19 l50 -19 1 -208 c1
-157 4 -209 14 -212 7 -3 16 1 20 8 4 7 11 99 15 205 l7 192 52 7 c107 13 106
13 106 -47 0 -54 17 -209 26 -239 3 -10 15 -18 26 -18 18 0 20 4 14 43 -11 81
-26 261 -21 265 2 3 26 7 53 10 l49 4 7 -103 c9 -141 27 -266 40 -284 6 -8 16
-11 23 -7 8 5 8 34 -4 117 -30 223 -6 551 59 818 12 48 19 89 16 92 -3 4 -190
45 -203 45 -2 0 -6 -9 -10 -19z"/>
<path d="M810 1464 c-83 -11 -139 -26 -155 -44 -16 -17 -15 -19 9 -35 14 -9
26 -28 28 -43 3 -22 11 -28 53 -39 28 -7 109 -18 182 -24 l131 -12 6 -81 c4
-66 3 -173 -3 -231 -1 -6 -14 -16 -30 -21 -22 -9 -33 -24 -50 -68 -34 -92 -46
-105 -99 -108 -43 -3 -47 -5 -47 -28 0 -21 5 -26 32 -28 17 -2 46 4 62 13 17
8 31 11 31 6 0 -13 -59 -61 -75 -61 -20 0 -37 -27 -30 -50 8 -26 32 -25 76 4
32 22 55 51 103 130 13 20 21 25 29 17 6 -6 37 -11 69 -11 51 0 58 2 58 20 0
30 21 15 67 -50 51 -72 117 -122 153 -118 19 2 25 9 25 27 0 19 -9 27 -44 40
-50 18 -62 36 -31 44 14 3 20 13 20 32 0 23 -4 26 -27 25 -49 -3 -54 -1 -69
38 -29 74 -56 122 -72 131 -19 11 -25 105 -16 249 l6 82 62 0 c59 0 201 14
259 26 21 4 27 11 27 33 0 20 7 29 30 38 17 6 30 18 30 27 0 46 -139 66 -485
71 -154 1 -296 1 -315 -1z"/>
</g>
</svg>
