<?xml version="1.0" standalone="no"?>
<!DOCTYPE svg PUBLIC "-//W3C//DTD SVG 20010904//EN"
 "http://www.w3.org/TR/2001/REC-SVG-20010904/DTD/svg10.dtd">
<svg version="1.0" xmlns="http://www.w3.org/2000/svg"
 width="512.000000pt" height="512.000000pt" viewBox="0 0 512.000000 512.000000"
 preserveAspectRatio="xMidYMid meet">

<g transform="translate(0.000000,512.000000) scale(0.100000,-0.100000)"
fill="#000000" stroke="none">
<path d="M185 3711 c-77 -19 -152 -88 -173 -160 -9 -27 -12 -211 -12 -637 l0
-599 24 -50 c28 -59 66 -97 121 -122 35 -15 78 -18 347 -21 l307 -4 7 -46 c22
-151 120 -274 256 -322 l53 -18 3 -91 3 -91 -39 0 c-79 0 -132 39 -132 98 0
28 -42 62 -77 62 -96 0 -89 -160 11 -248 69 -60 88 -62 631 -62 532 0 560 2
628 54 74 57 112 191 67 236 -44 44 -113 14 -125 -54 -11 -55 -46 -81 -113
-81 l-57 0 -3 86 -3 87 47 16 c148 50 256 178 271 321 l6 55 327 0 327 0 6
-55 c15 -143 123 -271 271 -321 l47 -16 -3 -87 -3 -86 -57 0 c-67 0 -102 26
-113 81 -12 68 -81 98 -125 54 -45 -45 -7 -179 67 -236 68 -52 96 -54 628 -54
543 0 562 2 631 62 71 62 102 180 60 227 -38 41 -126 12 -126 -43 0 -57 -54
-96 -132 -96 l-39 0 3 91 3 91 53 18 c136 48 234 171 256 322 l7 46 307 4
c269 3 312 6 347 21 55 25 93 63 121 122 l24 50 0 599 c0 426 -3 610 -12 637
-15 51 -70 114 -122 141 -31 16 -65 22 -143 26 -114 5 -145 0 -173 -28 -26
-26 -25 -60 0 -93 19 -24 26 -25 136 -29 113 -3 116 -4 140 -31 l24 -28 0
-585 c0 -400 -3 -592 -11 -606 -27 -50 52 -48 -1857 -48 -1770 0 -1779 0
-1797 -20 -25 -28 -23 -76 4 -103 21 -22 26 -22 398 -25 l376 -3 -7 -45 c-12
-94 -96 -176 -199 -195 -36 -6 -186 -9 -395 -7 -318 3 -340 4 -382 24 -77 36
-129 104 -144 187 l-7 37 39 0 c51 0 100 18 112 40 16 30 12 64 -10 88 -21 22
-22 22 -436 22 -441 0 -469 3 -493 48 -8 14 -11 206 -11 606 l0 585 24 28 24
28 2120 3 2121 2 20 26 c12 15 21 33 21 40 0 29 -25 64 -53 74 -35 12 -4192
13 -4242 1z m3979 -1628 c-15 -83 -67 -151 -144 -187 -42 -20 -64 -21 -382
-24 -209 -2 -359 1 -395 7 -103 19 -187 101 -199 195 l-7 46 567 0 567 0 -7
-37z m-2404 -448 l0 -85 -245 0 -245 0 0 85 0 85 245 0 245 0 0 -85z m2090 0
l0 -85 -245 0 -245 0 0 85 0 85 245 0 245 0 0 -85z"/>
<path d="M2797 3390 c-71 -12 -155 -57 -208 -111 l-45 -46 -40 28 c-55 40
-123 60 -198 60 -122 0 -149 -30 -143 -161 3 -86 22 -139 68 -198 18 -24 18
-24 -29 -70 -87 -85 -131 -219 -112 -339 12 -73 32 -92 103 -102 123 -17 254
27 339 114 l47 47 30 -25 c54 -45 136 -69 223 -65 107 4 122 19 126 128 5 91
-10 145 -56 212 l-30 43 48 47 c86 84 129 215 110 335 -12 71 -30 90 -99 103
-60 11 -65 11 -134 0z m85 -180 c-11 -121 -108 -219 -218 -220 l-41 0 8 49
c16 103 84 177 184 202 57 14 70 8 67 -31z m-493 -54 c15 -8 42 -31 60 -51 73
-83 8 -146 -75 -73 -38 33 -64 82 -64 118 0 25 37 27 79 6z m101 -336 c0 -113
-105 -219 -218 -220 l-42 0 6 43 c16 105 93 187 194 208 60 12 60 12 60 -31z
m255 -11 c62 -55 89 -139 45 -139 -61 0 -150 76 -150 129 0 15 3 31 7 34 16
17 65 5 98 -24z"/>
<path d="M1485 3313 c-278 -28 -443 -322 -318 -568 36 -72 115 -149 187 -182
55 -25 72 -28 166 -28 94 0 111 3 160 27 216 106 295 359 176 563 -72 122
-230 202 -371 188z m131 -168 c130 -53 184 -228 108 -351 -42 -69 -107 -107
-190 -112 -84 -6 -140 16 -193 73 -91 98 -90 235 3 333 69 74 175 96 272 57z"/>
<path d="M3544 3309 c-108 -14 -226 -92 -280 -184 -119 -204 -40 -457 176
-563 49 -24 66 -27 160 -27 94 0 111 3 166 28 72 33 151 110 187 182 143 281
-94 607 -409 564z m145 -161 c72 -22 141 -109 156 -195 16 -98 -56 -223 -150
-259 -67 -25 -160 -16 -221 22 -184 113 -133 403 78 443 46 9 82 6 137 -11z"/>
<path d="M673 2909 c-115 -21 -187 -109 -187 -229 0 -137 94 -230 231 -230 74
1 129 25 176 80 77 90 77 216 0 301 -59 66 -136 92 -220 78z m112 -182 c36
-52 -2 -127 -65 -127 -43 0 -65 14 -80 50 -37 89 90 156 145 77z"/>
<path d="M4363 2909 c-57 -11 -93 -31 -136 -78 -77 -85 -77 -211 0 -301 47
-55 102 -79 176 -80 137 0 231 93 231 230 0 150 -123 255 -271 229z m113 -191
c29 -56 -8 -118 -71 -118 -72 0 -109 77 -65 133 36 46 109 38 136 -15z"/>
</g>
</svg>
