<?xml version="1.0" standalone="no"?>
<!DOCTYPE svg PUBLIC "-//W3C//DTD SVG 20010904//EN"
 "http://www.w3.org/TR/2001/REC-SVG-20010904/DTD/svg10.dtd">
<svg version="1.0" xmlns="http://www.w3.org/2000/svg"
 width="225.000000pt" height="225.000000pt" viewBox="0 0 225.000000 225.000000"
 preserveAspectRatio="xMidYMid meet">
<metadata>
Created by potrace 1.16, written by Peter Selinger 2001-2019
</metadata>
<g transform="translate(0.000000,225.000000) scale(0.100000,-0.100000)"
fill="#000000" stroke="none">
<path d="M716 1629 c4 -8 -5 -9 -32 -5 -39 6 -200 -7 -210 -17 -3 -2 2 -33 11
-68 27 -101 44 -234 49 -369 l5 -125 -9 105 c-5 58 -18 159 -27 225 l-18 120
-80 11 c-44 7 -98 17 -120 23 -21 6 -40 9 -42 7 -2 -2 7 -46 21 -97 13 -52 30
-137 37 -189 19 -129 17 -489 -3 -592 -14 -78 -14 -78 7 -78 20 0 24 9 34 73
7 39 15 118 18 174 l6 103 26 -7 c14 -3 42 -11 61 -17 l35 -11 -3 -70 c-2 -39
-10 -114 -18 -167 -18 -123 -18 -138 1 -138 21 0 29 27 45 137 10 71 16 92 30
96 17 4 30 51 30 115 0 25 4 32 19 32 22 0 31 -50 31 -176 0 -64 3 -84 14 -84
15 0 26 80 26 196 l0 74 30 0 31 0 -7 -60 c-6 -51 -4 -60 9 -60 11 0 18 14 23
48 13 91 23 78 24 -29 0 -88 3 -108 16 -113 9 -3 17 -6 19 -6 2 0 6 37 8 83
l3 82 2 -96 c3 -131 12 -189 28 -189 10 0 14 17 14 64 l0 63 43 6 c23 2 51 8
62 12 18 7 17 5 -4 -18 -14 -15 -32 -27 -42 -27 -22 0 -42 -25 -37 -47 9 -45
89 2 144 85 28 41 39 51 49 42 7 -6 42 -9 80 -8 62 3 69 1 84 -22 32 -49 72
-88 106 -104 19 -9 35 -23 35 -31 0 -20 26 -19 34 1 3 9 6 64 7 122 0 59 4
130 9 157 l7 50 2 -50 c1 -27 3 -76 4 -107 1 -31 5 -60 10 -64 17 -17 26 16
30 104 2 51 6 95 10 98 3 3 26 2 51 -1 l45 -7 -6 -122 c-5 -107 -4 -124 10
-129 21 -8 24 5 32 136 4 59 11 107 16 107 5 0 9 -20 9 -44 0 -56 8 -76 29
-76 13 0 15 9 13 55 -3 35 0 55 7 55 7 0 11 -30 12 -82 1 -133 21 -269 41
-282 9 -5 20 -8 23 -4 3 3 1 43 -5 89 -6 46 -12 129 -13 183 l-2 98 45 14 c80
24 76 29 84 -113 10 -175 16 -207 42 -211 20 -3 20 0 13 55 -34 246 -11 567
57 802 14 46 23 85 22 86 -2 2 -34 -3 -73 -11 -38 -7 -93 -13 -122 -14 -40 0
-53 -4 -57 -17 -8 -26 -35 -213 -48 -323 -11 -102 -13 -109 -28 -94 -19 19 23
383 56 483 25 79 30 75 -123 90 -76 7 -142 13 -148 14 -5 1 -15 -58 -22 -132
-6 -73 -13 -134 -15 -136 -2 -1 -34 1 -73 6 -135 16 -380 21 -485 11 -57 -6
-106 -9 -109 -7 -2 3 -8 49 -13 102 -14 147 -17 163 -34 163 -9 0 -12 -5 -8
-11z m231 -411 l121 -12 5 -61 c7 -74 2 -208 -7 -224 -4 -6 -14 -11 -22 -11
-11 0 -14 17 -14 78 0 42 4 93 10 111 5 19 8 36 7 38 -2 1 -50 7 -108 13 -176
18 -169 16 -169 57 0 33 2 35 28 29 15 -3 82 -11 149 -18z m47 -263 c9 -148
-18 -207 -92 -201 l-37 4 -3 105 c-2 84 0 108 13 120 21 21 19 24 -16 32 -17
4 -28 9 -26 11 3 4 107 27 148 33 3 1 9 -46 13 -104z m349 83 c83 -12 96 -22
45 -32 -24 -5 -29 -9 -20 -18 8 -8 12 -60 12 -165 0 -143 -1 -153 -19 -153
-10 0 -24 7 -31 15 -10 12 -10 15 3 15 18 0 33 38 20 50 -4 5 -24 10 -43 12
-31 3 -35 7 -47 47 -7 25 -17 49 -23 55 -19 19 -7 186 14 186 6 0 46 -5 89
-12z"/>
</g>
</svg>
