<?xml version="1.0" standalone="no"?>
<!DOCTYPE svg PUBLIC "-//W3C//DTD SVG 20010904//EN"
 "http://www.w3.org/TR/2001/REC-SVG-20010904/DTD/svg10.dtd">
<svg version="1.0" xmlns="http://www.w3.org/2000/svg"
 width="612.000000pt" height="612.000000pt" viewBox="0 0 612.000000 612.000000"
 preserveAspectRatio="xMidYMid meet">
<metadata>
Created by potrace 1.16, written by Peter Selinger 2001-2019
</metadata>
<g transform="translate(0.000000,612.000000) scale(0.100000,-0.100000)"
fill="#000000" stroke="none">
<path d="M2150 4520 c-113 -10 -235 -19 -272 -19 -48 -1 -68 -5 -68 -13 0 -7
9 -51 20 -98 24 -101 80 -462 73 -472 -2 -5 -48 -8 -103 -8 l-98 0 -7 88 c-3
48 -8 171 -9 274 -1 104 -6 191 -9 195 -4 3 -82 1 -174 -6 -176 -12 -229 -14
-222 -7 2 2 93 10 202 16 109 7 194 16 190 21 -4 4 -96 1 -204 -6 -107 -8
-262 -15 -343 -17 -81 -1 -149 -5 -151 -8 -2 -3 6 -46 17 -95 11 -50 25 -121
33 -158 7 -37 15 -71 19 -74 3 -3 53 2 111 11 72 11 111 13 123 6 9 -5 15 -10
12 -11 -3 0 -14 -2 -25 -4 -11 -2 -56 -11 -100 -19 -44 -9 -125 -23 -180 -32
-57 -9 -105 -22 -111 -30 -13 -16 -38 -19 -28 -3 4 8 -10 10 -47 8 -30 -1 -62
1 -72 6 -36 15 -38 -9 -11 -116 43 -173 52 -217 78 -394 29 -187 47 -376 37
-387 -4 -4 -22 -9 -41 -10 l-34 -3 -12 160 c-14 188 -28 311 -56 490 -11 72
-21 150 -23 173 -6 79 -27 182 -37 188 -6 4 -65 15 -132 25 -109 16 -212 43
-303 80 -18 7 -35 11 -37 8 -3 -3 8 -54 25 -115 46 -167 47 -174 64 -269 73
-421 92 -916 50 -1320 -16 -155 -57 -414 -75 -475 -19 -65 -16 -71 37 -68 l47
3 23 105 c41 194 62 334 74 510 6 96 13 176 14 178 1 1 51 -16 110 -39 l107
-41 -6 -102 c-11 -152 -42 -390 -78 -584 -35 -193 -34 -197 32 -186 19 4 37 8
39 10 3 2 21 91 42 197 36 185 62 376 75 558 l6 87 36 6 c77 12 72 22 72 -138
0 -256 -34 -547 -96 -830 -13 -60 -22 -111 -20 -114 12 -12 94 -13 101 -2 8
13 37 136 64 280 19 98 46 327 57 484 l6 88 30 -6 c17 -3 39 -6 49 -6 18 0 19
-11 19 -175 l0 -175 24 -6 c34 -8 64 11 68 43 4 37 38 45 38 9 0 -20 -27 -160
-67 -348 -4 -23 -1 -29 21 -38 69 -26 79 -12 121 180 20 91 45 228 54 304 10
86 21 141 29 144 6 2 36 -2 65 -8 l54 -11 5 -220 c5 -238 7 -245 58 -233 14 3
26 7 28 9 2 2 6 82 9 179 6 162 7 176 25 176 10 0 19 7 19 15 1 8 2 21 3 27 0
7 9 14 19 16 17 3 18 -19 17 -440 0 -244 -1 -450 0 -459 0 -20 54 -31 76 -15
15 12 19 69 44 651 7 143 15 263 18 267 8 8 280 108 293 108 6 0 9 -165 8
-412 l-2 -413 34 -3 c19 -1 39 1 46 5 8 6 16 155 28 503 9 272 18 501 21 508
2 7 15 17 29 22 35 13 32 45 -6 67 -29 17 -30 20 -25 73 3 30 8 126 12 213 3
86 8 157 10 157 3 0 34 -7 69 -16 63 -16 65 -18 65 -48 0 -41 -37 -337 -51
-405 -9 -43 -8 -55 3 -62 25 -16 58 -10 68 14 6 15 9 -21 9 -110 1 -123 3
-133 21 -143 12 -6 29 -8 40 -5 22 7 24 31 41 445 6 151 13 278 15 281 5 9
203 33 210 26 4 -3 1 -102 -5 -219 -30 -575 -38 -981 -24 -1251 l6 -129 33
-16 c28 -13 41 -14 87 -3 63 14 52 -15 92 246 26 172 40 323 51 558 5 109 11
152 21 163 18 17 21 54 33 373 4 134 12 247 17 251 4 5 33 11 63 15 l55 7 -1
-291 -1 -291 -27 -26 c-33 -33 -33 -41 0 -56 26 -12 26 -14 20 -88 -17 -212
-57 -933 -52 -946 7 -18 85 -20 90 -1 2 6 11 89 20 182 27 286 65 647 69 651
3 3 469 -115 475 -120 1 -2 -4 -131 -12 -287 -14 -261 -13 -285 2 -297 18 -14
41 -15 61 -3 8 5 16 42 22 97 46 449 48 466 60 459 5 -4 9 -120 9 -278 0 -275
14 -577 28 -631 10 -35 52 -54 85 -39 21 10 22 14 15 119 -4 60 -10 269 -14
465 -8 401 -15 359 69 374 l37 6 0 -78 c-1 -43 -5 -163 -10 -268 -9 -209 -10
-207 50 -203 l35 3 22 279 c13 153 24 281 26 283 9 8 177 36 183 30 3 -3 2
-93 -3 -199 -8 -187 -1 -484 14 -618 l8 -65 53 -3 53 -3 -8 158 c-15 295 -2
838 22 861 5 5 143 -27 168 -40 14 -7 16 -19 12 -76 -3 -37 -10 -157 -15 -267
-10 -217 -10 -217 45 -213 30 3 30 3 41 88 l10 85 6 -75 c4 -41 12 -158 18
-260 12 -203 15 -210 75 -210 18 0 34 2 36 5 3 2 2 40 -2 84 -4 43 -10 140
-14 216 -7 133 -7 136 14 142 15 4 21 13 21 33 0 24 5 29 35 34 19 4 36 10 39
14 3 6 9 62 32 333 l6 66 131 20 c73 12 135 18 138 15 4 -4 3 -45 -1 -92 -5
-47 -9 -141 -9 -210 -1 -139 26 -531 37 -542 12 -12 77 -19 90 -10 11 7 11 34
3 143 -28 364 -26 539 6 539 12 0 14 10 8 58 -3 31 -7 118 -7 192 -1 276 135
1016 222 1205 27 60 65 184 57 191 -3 3 -29 1 -57 -6 -28 -7 -53 -10 -56 -7
-7 7 33 155 50 187 14 25 56 159 56 177 0 6 -17 13 -37 16 -21 3 -74 11 -118
17 -44 6 -164 27 -268 46 -103 20 -195 34 -205 32 -9 -2 26 -13 78 -23 52 -11
84 -21 70 -23 -14 -1 -56 4 -95 12 -38 8 -73 12 -77 8 -6 -6 -76 -412 -80
-469 -1 -12 -10 -24 -19 -26 -12 -3 -19 -20 -24 -56 -5 -38 -11 -51 -23 -51
-23 1 -92 17 -99 23 -3 3 0 22 7 42 7 20 10 39 7 41 -3 3 -32 -2 -65 -10 -65
-17 -101 -20 -64 -6 13 6 22 18 22 31 0 33 82 354 91 357 10 4 62 172 55 179
-2 3 -62 14 -133 24 -70 11 -203 33 -296 50 -92 16 -172 27 -177 24 -10 -6
-31 -102 -35 -162 -2 -23 -18 -130 -36 -237 -30 -177 -35 -196 -53 -196 -10 0
-208 38 -439 85 l-421 85 -414 -21 c-319 -17 -416 -19 -421 -10 -4 7 -13 112
-20 234 -6 122 -15 249 -19 282 l-7 60 -40 1 c-22 1 -132 -6 -245 -16z m240
-208 l0 -48 -217 -18 c-120 -10 -222 -19 -228 -20 -5 0 -14 19 -21 44 l-11 45
71 8 c120 13 349 35 379 36 26 1 27 -1 27 -47z m-767 -58 l5 -42 -72 -6 c-156
-14 -450 -26 -457 -19 -4 5 -10 27 -14 51 l-7 42 59 1 c32 0 150 6 263 13 113
6 208 9 211 6 4 -3 9 -24 12 -46z m2937 -60 c113 -20 209 -40 214 -45 6 -5 4
-25 -3 -49 l-12 -42 -42 7 c-92 15 -315 56 -360 66 -43 10 -48 14 -43 33 3 11
6 31 6 44 0 14 6 22 18 22 9 0 109 -16 222 -36z m-2166 -36 c3 -29 6 -90 6
-135 l0 -83 -34 0 c-19 0 -36 6 -39 13 -9 24 -20 234 -13 246 4 6 22 11 40 11
33 0 33 -1 40 -52z m-766 -135 l3 -123 -46 0 c-44 0 -45 1 -46 33 0 17 -4 70
-8 117 -5 47 -7 89 -4 93 3 4 26 7 51 5 l47 -3 3 -122z m3702 38 c91 -17 188
-33 216 -37 76 -9 80 -13 64 -68 -7 -25 -17 -46 -22 -46 -13 0 -429 79 -450
86 -19 6 -22 23 -12 73 5 23 11 30 23 27 9 -3 90 -19 181 -35z m-944 6 c2 -2
-7 -64 -21 -137 -14 -73 -25 -134 -25 -136 0 -8 -45 -3 -59 5 -13 8 -12 27 3
142 9 73 19 136 21 140 5 7 72 -4 81 -14z m-4027 -57 c36 -10 102 -25 146 -33
l80 -13 6 -45 c4 -24 4 -47 0 -51 -7 -8 -172 31 -246 59 -44 16 -50 23 -61 61
-15 49 -15 49 75 22z m4275 12 c5 -8 -40 -267 -49 -282 -3 -6 5 -10 19 -10 14
0 26 1 26 3 0 2 9 54 20 115 11 62 21 123 22 137 2 20 8 25 30 25 15 0 29 -3
31 -8 3 -4 -10 -61 -29 -127 -19 -65 -34 -122 -34 -126 0 -4 10 -9 23 -11 40
-6 -204 -27 -384 -33 -121 -4 -179 -3 -184 4 -4 8 48 11 173 11 185 0 282 7
262 20 -9 6 -9 26 3 86 9 44 19 99 22 124 11 66 32 99 49 72z m564 -96 c2 -2
-3 -37 -10 -77 l-13 -74 -39 -3 c-21 -2 -42 0 -46 5 -7 7 4 130 15 160 3 8 15
9 47 2 23 -6 44 -12 46 -13z m-4128 -46 c0 -5 -12 -10 -26 -10 -14 0 -34 -5
-45 -10 -21 -12 -26 -40 -6 -40 6 0 29 -5 50 -11 62 -17 46 -35 -55 -58 -142
-32 -142 -32 -160 39 l-14 60 35 6 c20 4 63 12 96 19 75 16 125 18 125 5z
m-558 -131 c9 -71 57 -488 65 -561 3 -35 2 -58 -4 -58 -5 0 -26 134 -47 298
-20 163 -40 317 -43 341 -5 35 -3 43 8 39 8 -3 17 -26 21 -59z m95 37 c1 -1 7
-46 13 -101 15 -139 25 -553 13 -540 -8 8 -84 597 -83 644 0 9 8 11 27 6 16
-4 29 -7 30 -9z m438 -118 c8 -38 35 -365 35 -428 0 -64 -16 -81 -24 -27 -3
17 -13 111 -21 207 -9 96 -18 196 -22 223 -5 39 -3 47 11 47 8 0 18 -10 21
-22z m2520 -213 c-167 -24 -319 -36 -510 -42 -280 -8 -222 11 95 31 146 9 279
18 295 20 17 1 71 3 120 3 l90 1 -90 -13z m1349 -162 c-4 -21 -8 -40 -10 -42
-2 -2 -46 -6 -99 -9 -91 -5 -95 -4 -95 16 0 11 4 32 10 46 9 25 12 26 105 26
l96 0 -7 -37z m-1367 -120 c-4 -38 -12 -161 -18 -275 l-13 -207 -50 -11 c-28
-6 -69 -13 -92 -17 l-40 -5 7 78 c4 44 15 169 23 278 9 110 17 201 19 202 5 5
107 21 141 23 l29 1 -6 -67z m273 -72 c132 -33 155 -42 154 -58 -1 -10 -11
-84 -23 -165 -11 -82 -21 -153 -21 -158 0 -8 -27 -9 -82 -5 -46 4 -118 2 -161
-2 -43 -5 -80 -7 -82 -4 -3 6 34 398 41 419 5 16 -5 17 174 -27z m-1700 -121
l0 -151 -52 7 c-29 4 -56 9 -60 13 -4 3 -2 65 5 136 l12 130 30 6 c69 15 65
24 65 -141z m-194 48 c-4 -46 -9 -102 -12 -125 -6 -42 -7 -43 -43 -43 -39 0
-213 19 -218 23 -3 4 18 191 23 196 3 4 188 27 233 30 24 1 24 1 17 -81z
m-685 -303 c146 -20 265 -43 329 -62 51 -15 145 -62 138 -69 -2 -1 -24 3 -48
10 -25 8 -88 25 -140 39 -85 23 -141 34 -345 68 -33 6 -64 15 -69 20 -14 13
12 12 135 -6z"/>
</g>
</svg>
