<?xml version="1.0" standalone="no"?>
<!DOCTYPE svg PUBLIC "-//W3C//DTD SVG 20010904//EN"
 "http://www.w3.org/TR/2001/REC-SVG-20010904/DTD/svg10.dtd">
<svg version="1.0" xmlns="http://www.w3.org/2000/svg"
 width="512.000000pt" height="512.000000pt" viewBox="0 0 512.000000 512.000000"
 preserveAspectRatio="xMidYMid meet">

<g transform="translate(0.000000,512.000000) scale(0.100000,-0.100000)"
fill="#000000" stroke="none">
<path d="M922 4953 c-21 -8 -43 -61 -36 -88 9 -38 41 -55 101 -55 l53 0 0 -88
0 -88 -32 -12 c-47 -17 -105 -68 -128 -111 -10 -21 -29 -90 -41 -154 l-23
-117 -217 0 c-119 0 -240 -5 -269 -10 -161 -31 -285 -151 -319 -308 -16 -75
-16 -2649 0 -2724 34 -157 158 -277 319 -308 29 -5 150 -10 269 -10 l217 0 23
-117 c12 -64 31 -133 41 -154 23 -43 81 -94 127 -111 l33 -12 0 -88 0 -88 -53
0 c-60 0 -92 -17 -101 -55 -7 -29 15 -79 39 -89 9 -3 277 -6 594 -6 570 0 579
0 605 21 19 15 26 30 26 54 0 49 -37 75 -106 75 l-54 0 0 85 0 85 35 14 c54
23 104 66 126 107 18 37 33 92 59 222 l11 57 339 0 339 0 11 -57 c26 -130 41
-185 59 -222 22 -41 72 -84 126 -107 l35 -14 0 -85 0 -85 -54 0 c-69 0 -106
-26 -106 -75 0 -24 7 -39 26 -54 26 -21 35 -21 605 -21 317 0 585 3 594 6 24
10 46 60 39 89 -9 38 -41 55 -101 55 l-53 0 0 88 0 88 33 12 c46 17 104 68
127 111 10 21 29 90 41 154 l23 117 217 0 c119 0 240 5 269 10 161 31 285 151
319 308 16 75 16 2649 0 2724 -34 157 -158 277 -319 308 -29 5 -150 10 -269
10 l-217 0 -23 117 c-12 64 -31 133 -41 154 -23 43 -81 94 -127 111 l-33 12 0
88 0 88 53 0 c60 0 92 17 101 55 7 29 -15 79 -39 89 -9 3 -277 6 -594 6 -570
0 -579 0 -605 -21 -19 -15 -26 -30 -26 -54 0 -49 37 -75 106 -75 l54 0 0 -85
0 -85 -35 -14 c-54 -23 -104 -66 -126 -107 -18 -37 -33 -92 -59 -221 l-11 -58
-339 0 -339 0 -11 58 c-26 129 -41 184 -59 221 -22 41 -72 84 -126 107 l-35
14 0 85 0 85 54 0 c69 0 106 26 106 75 0 24 -7 39 -26 54 -26 21 -34 21 -608
20 -319 0 -587 -3 -594 -6z m918 -228 l0 -85 -325 0 -325 0 0 85 0 85 325 0
325 0 0 -85z m2090 0 l0 -85 -325 0 -325 0 0 85 0 85 325 0 325 0 0 -85z
m-1947 -246 c34 -15 44 -38 66 -146 l18 -93 -548 0 c-302 0 -549 2 -549 4 0 2
9 48 20 101 21 102 30 122 65 135 32 14 899 12 928 -1z m2106 -14 c14 -13 27
-54 41 -119 11 -54 20 -99 20 -101 0 -1 -23 -5 -52 -7 -38 -4 -57 -12 -70 -28
-24 -30 -23 -69 4 -97 l21 -23 347 0 c401 0 424 -3 494 -74 82 -81 76 25 76
-1456 0 -1481 6 -1375 -76 -1456 -79 -80 62 -74 -1851 -74 -1182 0 -1710 -3
-1724 -11 -48 -25 -44 -105 7 -128 17 -7 138 -11 383 -11 l358 0 -18 -92 c-22
-110 -33 -133 -68 -148 -18 -7 -168 -10 -479 -8 -436 3 -452 4 -471 23 -14 13
-27 54 -41 119 -11 54 -20 99 -20 101 0 1 23 5 52 7 38 4 57 12 70 28 24 30
23 69 -4 97 l-21 23 -347 0 c-401 0 -424 3 -494 74 -82 81 -76 -25 -76 1456 0
1481 -6 1375 76 1456 79 80 -62 74 1851 74 1182 0 1710 3 1724 11 48 25 44
105 -7 128 -17 7 -138 11 -383 11 l-358 0 18 93 c22 105 33 131 63 145 14 7
175 10 478 9 443 -2 458 -3 477 -22z m61 -3589 c0 -2 -9 -48 -20 -102 -14 -65
-27 -106 -41 -119 -19 -19 -35 -20 -471 -23 -311 -2 -461 1 -479 8 -35 15 -46
38 -68 148 l-18 92 548 0 c302 0 549 -2 549 -4z m-2310 -481 l0 -85 -325 0
-325 0 0 85 0 85 325 0 325 0 0 -85z m2090 0 l0 -85 -325 0 -325 0 0 85 0 85
325 0 325 0 0 -85z"/>
<path d="M882 3821 c-116 -41 -180 -154 -152 -271 45 -186 280 -244 403 -99
154 179 -29 449 -251 370z m136 -167 c47 -53 10 -134 -60 -134 -86 1 -117 106
-45 151 39 24 73 18 105 -17z"/>
<path d="M4107 3829 c-99 -23 -177 -120 -177 -220 0 -181 178 -293 339 -213
188 94 162 368 -41 429 -57 17 -66 17 -121 4z m100 -158 c72 -45 41 -150 -45
-151 -89 -1 -111 127 -28 160 31 13 38 12 73 -9z"/>
<path d="M1610 3669 c-203 -34 -353 -240 -320 -442 31 -190 178 -326 363 -335
88 -5 151 9 215 45 138 78 208 208 200 368 -12 235 -223 402 -458 364z m170
-166 c43 -17 75 -46 109 -98 22 -35 26 -51 26 -121 0 -72 -3 -85 -30 -129 -77
-125 -253 -154 -363 -59 -76 65 -104 156 -77 249 42 146 192 217 335 158z"/>
<path d="M3376 3670 c-121 -21 -242 -114 -294 -228 -52 -114 -40 -266 29 -373
78 -123 203 -185 356 -177 331 16 490 425 256 662 -93 95 -220 137 -347 116z
m169 -169 c95 -42 157 -162 136 -262 -15 -69 -33 -101 -83 -143 -110 -95 -286
-66 -363 59 -27 44 -30 57 -30 129 0 70 4 86 27 122 44 68 87 97 173 117 30 8
95 -3 140 -22z"/>
<path d="M2800 3029 c-77 -13 -153 -53 -209 -110 l-48 -48 -39 28 c-60 45
-131 64 -219 59 -102 -5 -118 -21 -123 -123 -5 -88 14 -159 59 -219 l28 -39
-48 -48 c-87 -86 -130 -216 -111 -336 12 -72 31 -91 103 -103 120 -19 247 23
336 112 l48 48 24 -19 c68 -52 110 -66 211 -66 128 0 141 11 146 120 5 88 -14
159 -59 219 l-28 39 48 48 c59 58 97 132 110 217 12 73 0 166 -25 193 -26 29
-121 42 -204 28z m82 -184 c-9 -115 -102 -207 -217 -217 l-40 -3 3 40 c9 106
82 189 189 214 61 15 68 11 65 -34z m-499 -49 c51 -21 99 -81 95 -119 -3 -28
-7 -32 -35 -35 -54 -5 -133 82 -133 148 0 24 25 26 73 6z m106 -355 c-4 -27
-14 -62 -22 -78 -35 -68 -113 -119 -192 -125 l-40 -3 3 40 c6 79 57 157 126
192 28 15 115 33 127 27 3 -2 3 -26 -2 -53z m266 -4 c40 -40 68 -107 52 -124
-3 -3 -23 -2 -44 2 -51 9 -123 81 -123 122 0 37 6 43 43 43 22 0 41 -12 72
-43z"/>
<path d="M1539 2206 c-101 -41 -173 -108 -214 -198 -72 -158 -43 -327 76 -447
238 -237 648 -83 667 251 9 152 -54 278 -177 357 -101 65 -247 81 -352 37z
m267 -162 c30 -18 60 -48 79 -79 27 -44 30 -57 30 -129 0 -70 -4 -86 -26 -121
-54 -82 -118 -118 -209 -118 -151 -1 -271 141 -241 284 15 69 33 101 83 143
53 46 86 56 169 53 54 -2 76 -8 115 -33z"/>
<path d="M3315 2212 c-124 -44 -221 -148 -255 -274 -7 -29 -11 -80 -8 -127 19
-333 429 -487 667 -250 193 194 134 520 -116 637 -75 35 -210 41 -288 14z
m206 -142 c42 -12 114 -71 134 -111 31 -58 38 -124 20 -184 -75 -259 -451
-226 -473 40 -2 35 1 78 7 98 42 126 177 194 312 157z"/>
<path d="M851 1724 c-190 -95 -161 -370 44 -430 145 -41 295 69 295 217 0 181
-178 293 -339 213z m164 -149 c44 -43 21 -124 -40 -139 -34 -9 -83 18 -96 52
-32 83 73 151 136 87z"/>
<path d="M4062 1729 c-134 -66 -174 -240 -82 -356 57 -73 155 -105 245 -79
160 47 223 230 125 364 -60 84 -195 117 -288 71z m156 -149 c45 -42 36 -107
-17 -135 -83 -42 -162 65 -96 130 30 31 82 33 113 5z"/>
</g>
</svg>
